<?xml version="1.0" encoding="iso-8859-1"?>
<!-- Generator: Adobe Illustrator 19.0.0, SVG Export Plug-In . SVG Version: 6.00 Build 0)  -->
<svg version="1.1" id="Capa_1" xmlns="http://www.w3.org/2000/svg" xmlns:xlink="http://www.w3.org/1999/xlink" x="0px" y="0px"
	 viewBox="0 0 512 512" style="enable-background:new 0 0 512 512;" xml:space="preserve">
<path style="fill:#BF6015;" d="M468.1,313.299C456.7,283.001,451,251.201,451,218.8V196C451,88.9,363.1,0,256,0
	C148.599,0,61,88.9,61,196c0,30,1.8,67.2-17.1,117.299c-2.999,7.8,1.199,16.201,8.699,19.2C60.399,335.5,69.1,331.6,72.1,323.8
	c2.701-7.5,5.099-15,7.2-22.2c29.101,0.899,55.201,17.1,69,43.2c-2.699,19.799-7.2,39.6-14.399,58.499
	c-2.999,7.8,1.199,16.201,8.699,19.2c7.8,3.001,16.501-0.899,19.501-8.699c6.301-16.8,10.8-33.9,14.101-51.301
	c26.999,3.3,50.7,18.9,63.3,43.801l1.5,3.3V436c0,8.401,6.599,15,15,15s15-6.599,15-15v-26.4l1.5-3.3
	c12.599-24.901,36.301-40.501,63.3-43.801c3.301,17.401,7.8,34.501,14.101,51.301c2.999,7.8,11.7,11.7,19.501,8.699
	c7.5-2.999,11.699-11.4,8.699-19.2c-7.2-18.898-11.7-38.699-14.399-58.499c13.799-26.1,39.899-42.301,69-43.2
	c2.1,7.2,4.499,14.7,7.2,22.2c2.401,6,8.101,9.6,14.099,9.6c1.8,0,3.6-0.3,5.402-0.901C466.901,329.5,471.099,321.099,468.1,313.299
	z M151,300.099c-17.701-16.199-40.201-26.1-64.799-28.499C89.5,254.5,91,236.8,91,218.8v-5.7c24.901,4.499,46.8,19.799,58.5,43.2
	l1.5,3.3V300.099z M151,210.099c-16.5-15-36.899-24.899-59.399-27.9c1.8-19.499,6.899-38.099,14.7-54.899
	c18.6,7.2,33.9,20.999,43.2,39l1.5,3.3L151,210.099L151,210.099z M156.099,75.399C153.1,85,151,95.2,151,106v14.399
	c-8.699-7.8-18.6-14.7-29.7-19.499c11.1-15.6,24.601-29.1,40.199-39.9C160.3,63.401,156.099,72.4,156.099,75.399z M241,360.099
	c-16.8-15.298-38.101-25.199-60.901-28.198c0.601-7.5,0.901-15.3,0.901-23.101v-35.7c24.901,4.499,46.8,19.799,58.5,43.2l1.5,3.3
	V360.099z M241,270.099c-16.5-15-37.2-24.899-60-28.198V183.1c24.901,4.499,46.8,19.799,58.5,43.2l1.5,3.3V270.099z M241,180.099
	c-16.5-15-37.2-24.899-60-28.198V106c0-4.2,0.601-8.401,1.199-12.599c24.6,5.099,45.901,20.4,57.301,42.9l1.5,3.3V180.099z
	 M241,90.099C227.5,77.8,211.3,69.101,193.599,64.6C204.401,48.401,221.201,35.4,241,31.5V90.099z M271,31.5
	c19.799,3.9,36.599,16.901,47.401,33.1C300.7,69.101,284.5,77.8,271,90.099V31.5z M271,139.6l1.5-3.3
	c11.4-22.5,32.701-37.8,57.301-42.9c0.598,4.199,1.199,8.4,1.199,12.6v45.901c-22.8,3.3-43.5,13.198-60,28.198V139.6z M271,229.6
	l1.5-3.3c11.7-23.401,33.6-38.701,58.5-43.2v58.801c-22.8,3.3-43.5,13.198-60,28.198V229.6z M271,360.099V319.6l1.5-3.3
	c11.7-23.401,33.6-38.701,58.5-43.2v35.7c0,7.8,0.3,15.601,0.901,23.101C309.101,334.9,287.8,344.801,271,360.099z M405.7,127.301
	c7.8,16.8,12.9,35.4,14.7,54.899c-22.5,3.001-42.9,12.9-59.399,27.9v-40.5l1.5-3.3C371.8,148.299,387.1,134.5,405.7,127.301z
	 M350.501,61C366.1,71.8,379.6,85.3,390.7,100.901c-11.1,4.799-21,11.699-29.7,19.499V106c0-10.8-2.1-21-5.099-30.601
	C355.901,72.7,351.7,63.401,350.501,61z M361,300.099V259.6c13.801-27.299,34.501-41.7,60-46.5v5.7c0,17.999,1.5,35.7,4.799,52.8
	C401.201,273.999,378.701,283.9,361,300.099z"/>
<path style="fill:#994C10;" d="M468.1,313.299C456.7,283.001,451,251.201,451,218.8V196C451,88.9,363.1,0,256,0v451
	c8.401,0,15-6.599,15-15v-26.4l1.5-3.3c12.599-24.901,36.301-40.501,63.3-43.801c3.301,17.401,7.8,34.501,14.101,51.301
	c2.999,7.8,11.7,11.7,19.501,8.699c7.5-2.999,11.699-11.4,8.699-19.2c-7.2-18.898-11.7-38.699-14.399-58.499
	c13.799-26.1,39.899-42.301,69-43.2c2.1,7.2,4.499,14.7,7.2,22.2c2.401,6,8.101,9.6,14.099,9.6c1.8,0,3.6-0.3,5.402-0.901
	C466.901,329.5,471.099,321.099,468.1,313.299z M271,31.5c19.799,3.9,36.599,16.901,47.401,33.1C300.7,69.101,284.5,77.8,271,90.099
	V31.5z M271,139.6l1.5-3.3c11.4-22.5,32.701-37.8,57.301-42.9c0.598,4.199,1.199,8.4,1.199,12.6v45.901
	c-22.8,3.3-43.5,13.198-60,28.198V139.6z M271,229.6l1.5-3.3c11.7-23.401,33.6-38.701,58.5-43.2v58.801
	c-22.8,3.3-43.5,13.198-60,28.198V229.6z M271,360.099V319.6l1.5-3.3c11.7-23.401,33.6-38.701,58.5-43.2v35.7
	c0,7.8,0.3,15.601,0.901,23.101C309.101,334.9,287.8,344.801,271,360.099z M405.7,127.301c7.8,16.8,12.9,35.4,14.7,54.899
	c-22.5,3.001-42.9,12.9-59.399,27.9v-40.5l1.5-3.3C371.8,148.299,387.1,134.5,405.7,127.301z M350.501,61
	C366.1,71.8,379.6,85.3,390.7,100.901c-11.1,4.799-21,11.699-29.7,19.499V106c0-10.8-2.1-21-5.099-30.601
	C355.901,72.7,351.7,63.401,350.501,61z M361,300.099V259.6c13.801-27.299,34.501-41.7,60-46.5v5.7c0,17.999,1.5,35.7,4.799,52.8
	C401.201,273.999,378.701,283.9,361,300.099z"/>
<g>
	<path style="fill:#787780;" d="M467,391c-24.814,0-45-20.186-45-45s20.186-45,45-45s45,20.186,45,45S491.814,391,467,391z"/>
	<path style="fill:#787780;" d="M376,481c-24.814,0-45-20.186-45-45s20.186-45,45-45s45,20.186,45,45S400.814,481,376,481z"/>
</g>
<g>
	<path style="fill:#8B8892;" d="M45,391c-24.814,0-45-20.186-45-45s20.186-45,45-45s45,20.186,45,45S69.814,391,45,391z"/>
	<path style="fill:#8B8892;" d="M136,481c-24.814,0-45-20.186-45-45s20.186-45,45-45s45,20.186,45,45S160.814,481,136,481z"/>
	<path style="fill:#8B8892;" d="M256,422c-24.901,0-45,20.099-45,45s20.099,45,45,45s45-20.099,45-45S280.901,422,256,422z"/>
</g>
<path style="fill:#787780;" d="M301,467c0,24.901-20.099,45-45,45v-90C280.901,422,301,442.099,301,467z"/>
<g>
</g>
<g>
</g>
<g>
</g>
<g>
</g>
<g>
</g>
<g>
</g>
<g>
</g>
<g>
</g>
<g>
</g>
<g>
</g>
<g>
</g>
<g>
</g>
<g>
</g>
<g>
</g>
<g>
</g>
</svg>
